<svg width="420" height="420" viewBox="0 0 420 420" fill="none" xmlns="http://www.w3.org/2000/svg" role="img" aria-labelledby="title desc">
<title id="title">Markito mascot</title>
<desc id="desc">A small black rounded square character with two white eyes and a simple line mouth.</desc>
<ellipse cx="210" cy="366" rx="108" ry="18" fill="#DDF8EF"/>
<path d="M129 297C116 313 110 331 113 350" stroke="#111513" stroke-width="18" stroke-linecap="round"/>
<path d="M291 297C305 312 311 331 307 350" stroke="#111513" stroke-width="18" stroke-linecap="round"/>
<path d="M113 351L91 361" stroke="#111513" stroke-width="18" stroke-linecap="round"/>
<path d="M307 351L330 361" stroke="#111513" stroke-width="18" stroke-linecap="round"/>
<path d="M111 228C83 233 70 248 61 270" stroke="#111513" stroke-width="18" stroke-linecap="round"/>
<path d="M309 226C339 230 354 248 361 270" stroke="#111513" stroke-width="18" stroke-linecap="round"/>
<rect x="88" y="66" width="244" height="244" rx="62" fill="#111513"/>
<rect x="101" y="79" width="218" height="218" rx="52" stroke="#252B28" stroke-width="3"/>
<ellipse cx="159" cy="176" rx="31" ry="37" fill="white"/>
<ellipse cx="261" cy="176" rx="31" ry="37" fill="white"/>
<ellipse cx="168" cy="183" rx="12" ry="16" fill="#111513"/>
<ellipse cx="252" cy="183" rx="12" ry="16" fill="#111513"/>
<path d="M190 231C203 235 216 235 230 231" stroke="white" stroke-width="8" stroke-linecap="round"/>
<circle cx="329" cy="84" r="11" fill="#20C69B"/>
</svg>